<svg width="139" height="171" viewBox="0 0 139 171" fill="none" xmlns="http://www.w3.org/2000/svg">
<path d="M138.739 73.6578V74.4145C138.739 74.1623 138.739 73.91 138.739 73.6578ZM138.739 44.6487V45.4055C138.739 45.1532 138.739 44.901 138.739 44.6487ZM138.739 45.4055C138.739 45.1532 138.739 44.901 138.739 44.6487C138.235 19.928 118.055 0 93.3337 0H0V170.271H33.2974V33.5496H92.5769C99.64 33.5496 105.19 39.0991 105.19 46.1622V72.901C105.19 79.9641 99.64 85.5136 92.5769 85.5136H56.5047L46.4146 119.063H93.3337C118.055 119.063 138.235 99.1353 138.739 74.4145C138.739 74.1623 138.739 73.91 138.739 73.6578V45.4055Z" fill="black"/>
</svg>
